<svg width="21.000000" height="20.766602" viewBox="0 0 21 20.7666" fill="none" xmlns="http://www.w3.org/2000/svg" xmlns:xlink="http://www.w3.org/1999/xlink">
	<desc>
			Created with Pixso.
	</desc>
	<defs/>
	<path id="vacations" d="M13.5 7.79L13.49 3C13.49 1.34 12.15 0 10.5 0C8.84 0 7.5 1.34 7.5 3L7.49 7.79L1.1 11.01C0.42 11.35 0 12.04 0 12.79L0 13.8C0 14.42 0.56 14.89 1.17 14.78L7.49 13.67L7.49 16.2L6.45 17.45C6.15 17.81 5.99 18.26 5.99 18.73L5.99 19.76C5.99 20.4 6.57 20.87 7.2 20.74L10.5 20.04L13.77 20.74C14.39 20.87 14.98 20.4 14.98 19.76L14.98 18.72C14.98 18.26 14.82 17.81 14.53 17.45L13.5 16.2L13.5 13.67L19.82 14.78C20.43 14.89 21 14.42 21 13.8L21 12.79C21 12.04 20.57 11.35 19.89 11.01L13.5 7.79Z" fill="#7D8592" fill-opacity="1.000000" fill-rule="evenodd"/>
	<path id="vacations" d="M13.49 3C13.49 1.34 12.15 0 10.5 0C8.84 0 7.5 1.34 7.5 3L7.49 7.79L1.1 11.01C0.42 11.35 0 12.04 0 12.79L0 13.8C0 14.42 0.56 14.89 1.17 14.78L7.49 13.67L7.49 16.2L6.45 17.45C6.15 17.81 5.99 18.26 5.99 18.73L5.99 19.76C5.99 20.4 6.57 20.87 7.2 20.74L10.5 20.04L13.77 20.74C14.39 20.87 14.98 20.4 14.98 19.76L14.98 18.72C14.98 18.26 14.82 17.81 14.53 17.45L13.5 16.2L13.5 13.67L19.82 14.78C20.43 14.89 21 14.42 21 13.8L21 12.79C21 12.04 20.57 11.35 19.89 11.01L13.5 7.79L13.49 3Z" stroke="#3F8CFF" stroke-opacity="0" stroke-width="0.000000" stroke-linejoin="round"/>
</svg>
